<svg width="73" height="72" viewBox="0 0 73 72" fill="none" xmlns="http://www.w3.org/2000/svg">
<g clip-path="url(#clip0_4001_462)">
<g clip-path="url(#clip1_4001_462)">
<path d="M66.6714 37.7439C66.4546 36.614 65.4663 35.7969 64.3158 35.7963H61.9986L61.8282 34.7751C61.6582 33.7494 60.8501 32.948 59.823 32.7867C59.595 32.7507 59.3646 32.7267 59.1378 32.6955C59.5308 30.8609 59.2043 28.9455 58.2258 27.3447C58.7428 26.0036 58.6463 24.5034 57.9618 23.2397C57.2773 21.9759 56.0735 21.0755 54.6678 20.7759C53.7691 15.9662 49.585 12.4701 44.6922 12.4406C44.5722 12.4406 44.4654 12.4563 44.3514 12.4599C43.5696 11.2321 42.2807 10.4172 40.8363 10.2376C39.3918 10.0579 37.9426 10.5322 36.8838 11.5311C35.5501 10.6641 33.9938 10.2019 32.403 10.2003C29.8399 10.2107 27.4242 11.4004 25.8534 13.4259C24.1093 12.9172 22.2285 13.2295 20.7422 14.2745C19.256 15.3195 18.3258 16.9837 18.2142 18.7971C16.3822 19.5671 15.1902 21.3602 15.189 23.3475C15.1928 23.6919 15.233 24.035 15.309 24.3711C13.6889 26.8134 13.2655 29.8594 14.1582 32.6511C13.8366 32.6954 13.5078 32.7351 13.1982 32.7807C12.1658 32.9364 11.3505 33.7382 11.1774 34.7679L11.007 35.7927H8.68382C7.53524 35.7934 6.54822 36.6079 6.32942 37.7355L1.07462 64.7139C0.869402 65.7704 1.14769 66.8634 1.8332 67.6931C2.5187 68.5229 3.53952 69.0024 4.61582 69.0003H29.6406C30.6342 70.6395 33.6534 71.4003 36.4998 71.4003C39.3162 71.4003 42.3066 70.6575 43.329 69.0003H68.3838C69.4599 69.0023 70.4804 68.523 71.1659 67.6935C71.8514 66.864 72.1298 65.7714 71.925 64.7151L66.6714 37.7439ZM18.8178 25.5195C17.8435 24.9336 17.3785 23.7707 17.6803 22.6746C17.9822 21.5785 18.9769 20.8175 20.1138 20.8131C20.9095 20.8107 21.6583 21.1889 22.1286 21.8307C22.3841 22.1749 22.8039 22.3567 23.2298 22.3076C23.6557 22.2584 24.023 21.9858 24.1934 21.5924C24.3638 21.1989 24.3113 20.7445 24.0558 20.4003C23.241 19.3112 22.0061 18.6145 20.6526 18.4803C21.0104 16.7997 22.4924 15.5966 24.2106 15.5919C24.357 15.5993 24.5029 15.6153 24.6474 15.6399C24.5509 15.8859 24.4668 16.1366 24.3954 16.3911C24.2461 17.0263 24.6317 17.6644 25.2635 17.8276C25.8953 17.9908 26.5417 17.6191 26.7186 16.9911C26.8551 16.4636 27.0647 15.9579 27.3414 15.4886C28.4059 13.7054 30.3262 12.6095 32.403 12.6003C33.5333 12.6053 34.6377 12.9388 35.5818 13.5603C35.402 14.0656 35.3067 14.5971 35.2998 15.1335C35.2998 15.7962 35.8371 16.3335 36.4998 16.3335C37.1626 16.3335 37.6998 15.7962 37.6998 15.1335C37.6998 13.7394 38.8299 12.6093 40.224 12.6093C41.6181 12.6093 42.7482 13.7394 42.7482 15.1335C42.7482 15.7962 43.2855 16.3335 43.9482 16.3335C44.611 16.3335 45.1482 15.7962 45.1482 15.1335C45.1482 15.0411 45.1254 14.9535 45.1206 14.8611C48.5566 15.0731 51.446 17.5155 52.227 20.8682C51.6673 21.0312 51.1413 21.2934 50.6742 21.6423C50.3312 21.8995 50.1516 22.3201 50.2028 22.7458C50.2541 23.1714 50.5286 23.5374 50.9228 23.7058C51.3171 23.8742 51.7712 23.8195 52.1142 23.5623C53.0732 22.8523 54.3978 22.9089 55.2926 23.6981C56.1875 24.4873 56.4092 25.7945 55.8246 26.8347C55.5634 27.2939 55.1664 27.6611 54.6882 27.8859C54.1867 28.1287 53.9183 28.6847 54.0402 29.2284C54.1621 29.7721 54.6423 30.1604 55.1994 30.1659C55.3754 30.1661 55.5492 30.1272 55.7082 30.0518C56.0262 29.8977 56.3268 29.7099 56.6046 29.4915C57.2249 31.2549 56.8359 33.2163 55.5894 34.6095L55.5606 34.6395C53.9973 36.333 51.5034 36.7907 49.4406 35.7627C49.2386 35.6559 49.0445 35.5348 48.8598 35.4003C49.7437 34.1611 49.8658 32.5334 49.1766 31.1763C48.9837 30.7932 48.6011 30.5422 48.1729 30.5177C47.7447 30.4932 47.3359 30.6991 47.1007 31.0577C46.8654 31.4163 46.8393 31.8732 47.0322 32.2563C47.4268 33.0494 47.1807 34.0119 46.4538 34.5183C46.027 34.8024 45.4996 34.8923 45.0028 34.7656C44.5059 34.6388 44.086 34.3074 43.8474 33.8535C43.6556 33.47 43.2737 33.218 42.8457 33.1924C42.4176 33.1668 42.0084 33.3715 41.7723 33.7294C41.5361 34.0873 41.5088 34.544 41.7006 34.9275C42.4044 36.3481 43.8544 37.2453 45.4398 37.2411C45.956 37.2376 46.4668 37.137 46.9458 36.9447C47.3744 37.3199 47.8466 37.6422 48.3522 37.9047C50.0625 38.7912 52.0512 38.975 53.895 38.4171C52.7091 40.0363 50.9344 41.1245 48.9534 41.4471C48.3371 41.5474 47.9008 42.1035 47.95 42.726C47.9991 43.3484 48.5174 43.8292 49.1418 43.8315C49.2057 43.8314 49.2695 43.8266 49.3326 43.8171C50.0633 43.6906 50.7774 43.482 51.4614 43.1954C51.8311 43.849 52.1311 44.5396 52.3566 45.2559C52.3979 45.3809 52.419 45.5118 52.419 45.6435C52.4187 46.1621 52.109 46.6305 51.6318 46.8339C51.0798 47.0473 50.4532 46.8789 50.0826 46.4174C49.1533 45.3261 47.9363 44.5175 46.5702 44.0835C43.977 43.2147 42.9762 42.4383 42.5514 41.5935C43.1741 41.5158 43.7893 41.3873 44.391 41.2095C44.8009 41.0834 45.1124 40.7483 45.2081 40.3303C45.3039 39.9123 45.1694 39.475 44.8553 39.1831C44.5412 38.8912 44.0953 38.789 43.6854 38.9151C43.0121 39.1216 42.317 39.2493 41.6142 39.2955C40.2602 39.4013 38.8999 39.196 37.6374 38.6955C37.1634 38.5106 36.6243 38.6448 36.2922 39.0303C34.5451 41.0372 31.5548 41.3783 29.4005 39.8164C27.2463 38.2545 26.6408 35.3064 28.005 33.0219C28.226 32.6529 28.2334 32.1941 28.0244 31.8183C27.8155 31.4424 27.4218 31.2066 26.9918 31.1997C26.5619 31.1928 26.1608 31.4157 25.9398 31.7847C25.6535 32.2719 25.4233 32.79 25.2534 33.3291C24.3084 33.2793 23.5633 32.5064 23.5482 31.5602V31.5303C23.5476 31.2136 23.4205 30.9103 23.1951 30.6879C22.9697 30.4655 22.6648 30.3423 22.3482 30.3459C21.6826 30.3524 21.1469 30.8946 21.1482 31.5602C21.1536 33.6884 22.7584 35.4721 24.8742 35.7015C24.8785 36.1037 24.915 36.505 24.9834 36.9015C22.3041 37.4812 19.5251 36.5181 17.7791 34.4047C16.0331 32.2913 15.6117 29.3805 16.6866 26.8587C16.9551 27.1303 17.2548 27.3691 17.5794 27.5703C18.1463 27.9023 18.8748 27.7168 19.2138 27.1541C19.5529 26.5913 19.3763 25.8606 18.8178 25.5146V25.5195ZM13.5378 35.1591C14.091 35.0775 14.6622 35.0055 15.2298 34.9311C17.4485 38.4766 21.692 40.1982 25.7538 39.2007C26.8452 41.2721 28.8395 42.7166 31.1479 43.1078C33.4563 43.4991 35.8152 42.7923 37.5282 41.1963C38.3437 41.4395 39.1836 41.5916 40.0326 41.6499C40.6122 43.8483 42.2874 45.1803 45.807 46.3599C46.7558 46.6573 47.6023 47.2148 48.2502 47.9691C48.9706 48.8257 50.0302 49.3235 51.1494 49.3311C51.6389 49.3309 52.1233 49.2321 52.5738 49.0407C53.9341 48.4593 54.8165 47.1227 54.8166 45.6435C54.8177 45.2577 54.7561 44.8743 54.6342 44.5083C54.3644 43.6604 54.0089 42.8422 53.5734 42.0663C55.614 40.5993 57.0355 38.4254 57.561 35.9679C57.8166 35.6642 58.0477 35.3408 58.2522 35.0007C58.6542 35.0523 59.0562 35.0979 59.4606 35.1651L63.7926 61.2219C55.3248 58.3943 46.1676 58.3943 37.6998 61.2219V46.2003C37.6998 45.5375 37.1626 45.0003 36.4998 45.0003C35.8371 45.0003 35.2998 45.5375 35.2998 46.2003V61.2267C26.833 58.3965 17.6759 58.3931 9.20702 61.2171L13.5378 35.1591ZM3.68102 66.1587C3.45427 65.8848 3.36184 65.5238 3.42902 65.1747L8.68382 38.1963H10.6038L6.83822 60.8271C6.70577 61.6508 7.00908 62.4844 7.6399 63.0304C8.27072 63.5764 9.1392 63.757 9.93542 63.5079C16.3326 61.4353 23.148 61.0028 29.7558 62.2503L29.3982 66.6003H4.61582C4.2538 66.6005 3.91074 66.4384 3.68102 66.1587ZM36.4998 69.0003C33.609 69.0003 31.9506 68.1459 31.707 67.7655L32.1198 62.7854C33.4393 63.114 34.7306 63.547 35.9814 64.0803C36.1432 64.1582 36.3203 64.1992 36.4998 64.2003C36.6799 64.2 36.8575 64.159 37.0194 64.0803C38.2695 63.5438 39.5604 63.108 40.8798 62.7771L41.2926 67.7643C41.049 68.1459 39.3906 69.0003 36.4998 69.0003ZM69.3186 66.1587C69.0889 66.4384 68.7458 66.6005 68.3838 66.6003H43.605L43.245 62.2419C49.8565 60.997 56.6748 61.4332 63.0738 63.5103C63.8699 63.7562 64.7365 63.573 65.3649 63.0259C65.9933 62.4789 66.2941 61.6458 66.1602 60.8235L62.3982 38.1975H64.3182L69.5742 65.1735C69.6408 65.5236 69.547 65.8851 69.3186 66.1587Z" fill="#2DC071"/>
<path d="M32.5228 27.822C32.0316 28.2664 31.9935 29.0249 32.4376 29.5164C33.4556 30.6403 34.8009 31.416 36.2836 31.734C35.6121 32.6802 34.5231 33.2417 33.3628 33.24C32.7001 33.24 32.1628 33.7772 32.1628 34.44C32.1628 35.1027 32.7001 35.64 33.3628 35.64C35.847 35.6499 38.076 34.1156 38.9536 31.7916C41.9375 31.2971 44.2998 29.0003 44.878 26.0316C44.9674 25.6069 44.8205 25.1671 44.4939 24.8814C44.1674 24.5957 43.712 24.5085 43.303 24.6534C42.894 24.7983 42.595 25.1528 42.5212 25.5804C42.2859 26.818 41.5718 27.9129 40.534 28.6272C38.5375 29.9718 35.8599 29.6666 34.2172 27.9072C33.7728 27.4159 33.0143 27.3778 32.5228 27.822Z" fill="#2DC071"/>
<path d="M28.3396 26.5203C29.0024 26.5203 29.5396 25.983 29.5396 25.3203C29.5396 24.4928 29.8684 23.6992 30.4535 23.1141C31.0386 22.529 31.8322 22.2003 32.6596 22.2003C33.3224 22.2003 33.8596 21.663 33.8596 21.0003C33.8596 20.3376 33.3224 19.8003 32.6596 19.8003C29.6124 19.8036 27.143 22.2731 27.1396 25.3203C27.1396 25.6386 27.2661 25.9438 27.4911 26.1688C27.7162 26.3939 28.0214 26.5203 28.3396 26.5203Z" fill="#2DC071"/>
<path d="M37.6998 3.0001V1.8001C37.6998 1.13736 37.1625 0.600098 36.4998 0.600098C35.8371 0.600098 35.2998 1.13736 35.2998 1.8001V3.0001C35.2998 3.66284 35.8371 4.2001 36.4998 4.2001C37.1625 4.2001 37.6998 3.66284 37.6998 3.0001Z" fill="#2DC071"/>
<path d="M56.1919 9.2111L54.9919 10.4111C54.6799 10.7124 54.5548 11.1586 54.6646 11.5781C54.7744 11.9977 55.1021 12.3253 55.5217 12.4351C55.9412 12.545 56.3874 12.4198 56.6887 12.1079L57.8887 10.9079C58.2006 10.6066 58.3257 10.1604 58.2159 9.74089C58.1061 9.32134 57.7784 8.99368 57.3589 8.88387C56.9393 8.77405 56.4932 8.89915 56.1919 9.2111Z" fill="#2DC071"/>
<path d="M17.1594 12.4595C17.6447 12.4594 18.0821 12.167 18.2678 11.7187C18.4535 11.2703 18.3509 10.7543 18.0078 10.4111L16.8078 9.2111C16.5065 8.89915 16.0604 8.77405 15.6408 8.88387C15.2212 8.99368 14.8936 9.32134 14.7838 9.74089C14.6739 10.1604 14.7991 10.6066 15.111 10.9079L16.311 12.1079C16.536 12.333 16.8412 12.4594 17.1594 12.4595Z" fill="#2DC071"/>
<path d="M26.3971 7.41032C26.5548 7.40998 26.7109 7.37901 26.8567 7.31912C27.1509 7.19729 27.3845 6.96357 27.5063 6.66942C27.628 6.37527 27.6279 6.04479 27.5059 5.75072L26.1271 2.42432C25.9692 2.01917 25.6044 1.73117 25.1737 1.67152C24.743 1.61187 24.3137 1.78992 24.0516 2.1369C23.7895 2.48388 23.7356 2.94551 23.9107 3.34352L25.2883 6.66992C25.4742 7.11823 25.9118 7.41044 26.3971 7.41032Z" fill="#2DC071"/>
<path d="M48.4399 1.77505C47.8278 1.52185 47.1264 1.81242 46.8727 2.42425L45.4938 5.75065C45.3715 6.04485 45.3712 6.37563 45.493 6.67007C45.6147 6.96451 45.8486 7.19842 46.143 7.32025C46.2889 7.38014 46.445 7.41111 46.6026 7.41145C47.088 7.41157 47.5256 7.11936 47.7114 6.67105L49.0891 3.34465C49.2114 3.05044 49.2117 2.71966 49.0899 2.42523C48.9682 2.13079 48.7343 1.89687 48.4399 1.77505Z" fill="#2DC071"/>
<path d="M60.8898 21.6988C61.0476 21.6985 61.2038 21.6671 61.3494 21.6064L64.6746 20.2288C65.0708 20.0648 65.3493 19.7019 65.4054 19.2769C65.4614 18.8518 65.2864 18.4291 64.9464 18.1681C64.6063 17.907 64.1528 17.8472 63.7566 18.0112L60.4302 19.3888C59.8994 19.6068 59.5972 20.1701 59.7092 20.7329C59.8212 21.2958 60.316 21.7005 60.8898 21.6988Z" fill="#2DC071"/>
<path d="M11.6503 21.6062C12.2627 21.86 12.9649 21.5694 13.2187 20.957C13.4725 20.3446 13.1819 19.6424 12.5695 19.3886L9.2431 18.011C8.63073 17.7575 7.9288 18.0484 7.6753 18.6608C7.4218 19.2732 7.71273 19.9751 8.3251 20.2286L11.6503 21.6062Z" fill="#2DC071"/>
</g>
</g>
<defs>
<clipPath id="clip0_4001_462">
<rect width="70.9823" height="70.8" fill="white" transform="translate(1.00854 0.600098)"/>
</clipPath>
<clipPath id="clip1_4001_462">
<rect width="70.9823" height="70.8" fill="white" transform="translate(1.00854 0.600098)"/>
</clipPath>
</defs>
</svg>
