<svg width="86" height="86" fill="none" xmlns="http://www.w3.org/2000/svg"><path d="m60.156 74.02-2.382-20.287c-.337-2.874-1.65-5.517-3.69-7.434-2.042-1.916-4.67-2.973-7.392-2.972h-8.203c-2.72.001-5.347 1.059-7.387 2.975-2.039 1.916-3.35 4.558-3.688 7.43L25.03 74.022a8.403 8.403 0 0 0 .274 3.32 8.068 8.068 0 0 0 1.533 2.905 7.494 7.494 0 0 0 2.521 1.977c.963.461 2.007.7 3.063.699h20.349a7.067 7.067 0 0 0 3.061-.7 7.492 7.492 0 0 0 2.52-1.978 8.07 8.07 0 0 0 1.532-2.905 8.403 8.403 0 0 0 .274-3.318v0z" stroke="#fff" stroke-width="6" stroke-linecap="round" stroke-linejoin="round"/><path d="M42.594 27.49c6.166 0 11.165-5.318 11.165-11.878 0-6.56-4.999-11.879-11.165-11.879-6.166 0-11.165 5.318-11.165 11.878 0 6.56 5 11.879 11.165 11.879zM12.822 39.368c4.11 0 7.443-3.545 7.443-7.919 0-4.373-3.332-7.919-7.443-7.919-4.11 0-7.443 3.546-7.443 7.92 0 4.373 3.332 7.918 7.443 7.918zM72.367 39.368c4.11 0 7.442-3.545 7.442-7.919 0-4.373-3.332-7.919-7.442-7.919-4.111 0-7.444 3.546-7.444 7.92 0 4.373 3.333 7.918 7.444 7.918z" stroke="#fff" stroke-width="6"/><path d="M12.822 51.246h-1.139c-1.762 0-3.467.665-4.811 1.877-1.345 1.211-2.242 2.89-2.531 4.74L3.1 65.78a8.41 8.41 0 0 0 .166 3.406 8.099 8.099 0 0 0 1.497 3.016 7.512 7.512 0 0 0 2.55 2.066 7.07 7.07 0 0 0 3.13.734h13.543M72.366 51.246h1.14c1.761 0 3.466.665 4.81 1.877 1.345 1.211 2.242 2.89 2.532 4.74l1.239 7.918a8.409 8.409 0 0 1-.166 3.406 8.098 8.098 0 0 1-1.497 3.016 7.512 7.512 0 0 1-2.55 2.066 7.07 7.07 0 0 1-3.13.734H61.202" stroke="#fff" stroke-width="6" stroke-linecap="round" stroke-linejoin="round"/></svg>