<svg width="22" height="23" fill="none" xmlns="http://www.w3.org/2000/svg"><path fill-rule="evenodd" clip-rule="evenodd" d="M6.465.802C7.638.748 8.012.736 11 .736c2.988 0 3.362.013 4.534.066 1.172.053 1.972.24 2.672.51.733.278 1.398.71 1.948 1.27.56.55.992 1.214 1.268 1.948.272.7.458 1.5.512 2.67.054 1.175.066 1.549.066 4.536 0 2.988-.013 3.362-.066 4.535-.053 1.17-.24 1.97-.512 2.67a5.396 5.396 0 0 1-1.268 1.949c-.55.56-1.215.992-1.948 1.268-.7.272-1.5.458-2.67.512-1.174.054-1.548.066-4.536.066-2.988 0-3.362-.013-4.535-.066-1.17-.053-1.97-.24-2.67-.512a5.396 5.396 0 0 1-1.949-1.268 5.392 5.392 0 0 1-1.269-1.948c-.271-.7-.457-1.5-.511-2.67C.012 15.097 0 14.722 0 11.736c0-2.988.013-3.362.066-4.534C.119 6.03.306 5.23.577 4.53a5.396 5.396 0 0 1 1.27-1.948 5.392 5.392 0 0 1 1.947-1.27c.7-.27 1.5-.456 2.67-.51h.001zm8.98 1.98c-1.16-.053-1.508-.064-4.445-.064-2.937 0-3.285.01-4.445.064-1.073.049-1.655.228-2.043.379-.513.2-.88.437-1.265.822a3.412 3.412 0 0 0-.822 1.265c-.151.388-.33.97-.379 2.043-.053 1.16-.064 1.508-.064 4.445 0 2.937.011 3.285.064 4.445.049 1.073.228 1.655.379 2.043.176.477.457.91.822 1.265.355.365.788.646 1.265.822.388.15.97.33 2.043.379 1.16.053 1.507.064 4.445.064 2.938 0 3.285-.011 4.445-.064 1.073-.05 1.655-.228 2.043-.38.513-.2.88-.436 1.265-.821.365-.355.646-.788.822-1.265.151-.388.33-.97.379-2.043.053-1.16.064-1.508.064-4.445 0-2.937-.011-3.285-.064-4.445-.049-1.073-.228-1.655-.379-2.043-.2-.513-.437-.88-.822-1.265a3.413 3.413 0 0 0-1.265-.822c-.388-.151-.97-.33-2.043-.38zm-5.85 12.345a3.669 3.669 0 0 0 4-5.986 3.67 3.67 0 1 0-4 5.986zm-2.593-7.39a5.654 5.654 0 1 1 7.996 7.997 5.654 5.654 0 0 1-7.996-7.996zm10.906-.813a1.336 1.336 0 1 0-1.834-1.945 1.336 1.336 0 0 0 1.834 1.945z" fill="#3D3D3D"/></svg>