<svg width="84" height="84" fill="none" xmlns="http://www.w3.org/2000/svg"><path d="M42 37.57a20.833 20.833 0 0 1 20.833 20.832v25H54.5v-25a12.5 12.5 0 0 0-11.767-12.479l-.733-.02a12.5 12.5 0 0 0-12.48 11.766l-.02.733v25h-8.333v-25A20.833 20.833 0 0 1 42 37.57zm-27.083 12.5c1.162 0 2.291.137 3.375.39a24.78 24.78 0 0 0-1.255 6.563L17 58.403v.358a6.215 6.215 0 0 0-1.483-.334l-.6-.025a6.25 6.25 0 0 0-6.221 5.65l-.03.6v18.75H.334v-18.75A14.583 14.583 0 0 1 14.917 50.07zm54.166 0a14.583 14.583 0 0 1 14.584 14.582v18.75h-8.334v-18.75a6.25 6.25 0 0 0-5.65-6.22l-.6-.03c-.729 0-1.429.125-2.083.355v-.355c0-2.775-.45-5.441-1.287-7.933a14.246 14.246 0 0 1 3.37-.4zm-54.166-25a10.417 10.417 0 1 1 0 20.832 10.417 10.417 0 0 1 0-20.833zm54.166 0a10.417 10.417 0 1 1 0 20.833 10.417 10.417 0 0 1 0-20.834zm-54.166 8.332a2.083 2.083 0 1 0 0 4.167 2.083 2.083 0 0 0 0-4.167zm54.166 0a2.083 2.083 0 1 0 0 4.167 2.083 2.083 0 0 0 0-4.167zM42 .07a16.667 16.667 0 1 1 0 33.334A16.667 16.667 0 0 1 42 .069zm0 8.333a8.333 8.333 0 1 0 0 16.667 8.333 8.333 0 0 0 0-16.667z" fill="#000"/></svg>