<svg width="81" height="65" fill="none" xmlns="http://www.w3.org/2000/svg"><path d="M7.764 9.904C13.376 3.82 21.868.736 33 .736h4v11.276l-3.216.644c-5.48 1.096-9.292 3.252-11.332 6.416a11.609 11.609 0 0 0-1.752 5.664H33a4 4 0 0 1 4 4v28c0 4.412-3.588 8-8 8H5a4 4 0 0 1-4-4v-20l.012-11.676C.976 28.616.216 18.096 7.764 9.904zM73 64.736H49a4 4 0 0 1-4-4v-20l.012-11.676c-.036-.444-.796-10.964 6.752-19.156C57.376 3.82 65.868.736 77 .736h4v11.276l-3.216.644c-5.48 1.096-9.292 3.252-11.332 6.416a11.609 11.609 0 0 0-1.752 5.664H77a4 4 0 0 1 4 4v28c0 4.412-3.588 8-8 8z" fill="#000"/></svg>