<svg width="105" height="80" fill="none" xmlns="http://www.w3.org/2000/svg"><path d="M56.072.733 53.03 6.215 31.268 45.37l-6.393-6.328-2.203 3.626L3.12 74.922l-3.026 5h104.385l-1.996-4.607-10.01-23.117-1.942-4.481-6.9 6.83L58.93 6.313 56.076.734h-.004zm-.243 14.141 10.143 19.802-2.582 2.192-7.608-6.45-7.604 6.45-3.103-2.638 10.754-19.356zm-.043 24.24 7.607 6.45 5.68-4.822L79.75 61.597l2.075 4.072 6.447-6.38 6.072 14.028h-82.47c4.772-7.876 9.55-15.752 14.325-23.625l6.634 6.565 2.142-3.85c2.272-4.09 4.548-8.174 6.816-12.263l6.387 5.416 7.608-6.446z" fill="#fff"/></svg>