<svg width="84" height="77" fill="none" xmlns="http://www.w3.org/2000/svg"><path d="M82.39 68.814H8.485V1.783a.862.862 0 0 0-.859-.86H1.609a.862.862 0 0 0-.859.86v73.906c0 .473.387.86.86.86h80.78c.473 0 .86-.387.86-.86v-6.016a.862.862 0 0 0-.86-.859zM19.85 52.239a.862.862 0 0 0 1.213 0L35.92 37.458 49.627 51.25a.862.862 0 0 0 1.214 0l29.584-29.574a.862.862 0 0 0 0-1.214L76.17 16.21a.862.862 0 0 0-1.214 0L50.25 40.906 36.565 27.134a.863.863 0 0 0-1.214 0L15.606 46.76a.863.863 0 0 0 0 1.214l4.244 4.265z" fill="#000"/></svg>