<svg width="84" height="84" fill="none" xmlns="http://www.w3.org/2000/svg"><path fill="#E5E5E5" d="M0 0h84v84H0z"/><g clip-path="url(#a)"><path fill="#fff" d="M-764-1039H748v5141H-764z"/><path d="M79.167 1.653A65.5 65.5 0 0 0 64.917.069a34.416 34.416 0 0 0-25 8.584c-4.473 4.472-8.903 8.93-13.292 13.374-5.042-.541-17-.833-25 7.25a4.167 4.167 0 0 0 0 5.876l47.083 47.166a4.167 4.167 0 0 0 5.875 0c8.125-8.333 7.875-20.083 7.375-25l13.375-13.333c13.292-13.292 7.25-38.25 7-39.292a4.167 4.167 0 0 0-3.166-3.042zM69.333 38.11 54.5 52.86a4.167 4.167 0 0 0-1.125 3.75c.9 5.574.117 11.29-2.25 16.417L10.833 32.652A27.791 27.791 0 0 1 27.5 30.57a4.167 4.167 0 0 0 3.625-1.333s5.833-6.042 14.625-14.834a27.541 27.541 0 0 1 19.167-6c3.253.017 6.5.295 9.708.834 1 5.958 2.583 21-5.292 28.875z" fill="#000"/><path d="M57.542 34.653a8.333 8.333 0 1 0 0-16.667 8.333 8.333 0 0 0 0 16.667zM12.833 58.403C4.5 62.569 4.5 79.236 4.5 79.236a32.542 32.542 0 0 0 20.833-8.334l-12.5-12.5z" fill="#000"/></g><defs><clipPath id="a"><path fill="#fff" transform="translate(-764 -1039)" d="M0 0h1512v5141H0z"/></clipPath></defs></svg>