<svg width="24" height="17" fill="none" xmlns="http://www.w3.org/2000/svg"><path d="M23.5 3.248a2.786 2.786 0 0 0-.765-1.27 3.05 3.05 0 0 0-1.338-.742C19.519.74 11.995.74 11.995.74a76.623 76.623 0 0 0-9.39.47c-.502.139-.962.4-1.338.76-.37.356-.638.795-.778 1.276A29.09 29.09 0 0 0 0 8.74c-.012 1.84.15 3.68.488 5.494.137.479.404.916.775 1.269.37.353.833.608 1.34.743 1.904.494 9.39.494 9.39.494 3.141.035 6.281-.121 9.403-.47a3.05 3.05 0 0 0 1.338-.742 2.78 2.78 0 0 0 .765-1.27c.345-1.811.512-3.652.5-5.495.027-1.852-.141-3.7-.5-5.517zM9.604 12.165V5.318l6.26 3.424-6.26 3.423z" fill="#3D3D3D"/></svg>