<svg width="22" height="23" viewBox="0 0 22 23" fill="none" xmlns="http://www.w3.org/2000/svg">
<path fill-rule="evenodd" clip-rule="evenodd" d="M6.465 0.80184C7.638 0.74784 8.012 0.73584 11 0.73584C13.988 0.73584 14.362 0.74884 15.534 0.80184C16.706 0.85484 17.506 1.04184 18.206 1.31284C18.939 1.58984 19.604 2.02284 20.154 2.58284C20.714 3.13184 21.146 3.79584 21.422 4.52984C21.694 5.22984 21.88 6.02984 21.934 7.19984C21.988 8.37484 22 8.74884 22 11.7358C22 14.7238 21.987 15.0978 21.934 16.2708C21.881 17.4408 21.694 18.2408 21.422 18.9408C21.146 19.6749 20.7133 20.34 20.154 20.8898C19.604 21.4498 18.939 21.8818 18.206 22.1578C17.506 22.4298 16.706 22.6158 15.536 22.6698C14.362 22.7238 13.988 22.7358 11 22.7358C8.012 22.7358 7.638 22.7228 6.465 22.6698C5.295 22.6168 4.495 22.4298 3.795 22.1578C3.06092 21.8818 2.39582 21.4491 1.846 20.8898C1.28638 20.3405 0.853315 19.6757 0.577 18.9418C0.306 18.2418 0.12 17.4418 0.066 16.2718C0.012 15.0968 0 14.7228 0 11.7358C0 8.74784 0.013 8.37384 0.066 7.20184C0.119 6.02984 0.306 5.22984 0.577 4.52984C0.853723 3.79592 1.28712 3.13115 1.847 2.58184C2.39604 2.02234 3.06047 1.58928 3.794 1.31284C4.494 1.04184 5.294 0.85584 6.464 0.80184H6.465ZM15.445 2.78184C14.285 2.72884 13.937 2.71784 11 2.71784C8.063 2.71784 7.715 2.72884 6.555 2.78184C5.482 2.83084 4.9 3.00984 4.512 3.16084C3.999 3.36084 3.632 3.59784 3.247 3.98284C2.88205 4.33789 2.60118 4.77012 2.425 5.24784C2.274 5.63584 2.095 6.21784 2.046 7.29084C1.993 8.45084 1.982 8.79884 1.982 11.7358C1.982 14.6728 1.993 15.0208 2.046 16.1808C2.095 17.2538 2.274 17.8358 2.425 18.2238C2.601 18.7008 2.882 19.1338 3.247 19.4888C3.602 19.8538 4.035 20.1348 4.512 20.3108C4.9 20.4618 5.482 20.6408 6.555 20.6898C7.715 20.7428 8.062 20.7538 11 20.7538C13.938 20.7538 14.285 20.7428 15.445 20.6898C16.518 20.6408 17.1 20.4618 17.488 20.3108C18.001 20.1108 18.368 19.8738 18.753 19.4888C19.118 19.1338 19.399 18.7008 19.575 18.2238C19.726 17.8358 19.905 17.2538 19.954 16.1808C20.007 15.0208 20.018 14.6728 20.018 11.7358C20.018 8.79884 20.007 8.45084 19.954 7.29084C19.905 6.21784 19.726 5.63584 19.575 5.24784C19.375 4.73484 19.138 4.36784 18.753 3.98284C18.3979 3.61791 17.9657 3.33705 17.488 3.16084C17.1 3.00984 16.518 2.83084 15.445 2.78184ZM9.595 15.1268C10.3797 15.4535 11.2534 15.4976 12.0669 15.2516C12.8805 15.0056 13.5834 14.4848 14.0556 13.7781C14.5278 13.0714 14.7401 12.2227 14.656 11.3769C14.572 10.5312 14.197 9.74081 13.595 9.14084C13.2112 8.75732 12.7472 8.46365 12.2363 8.28099C11.7255 8.09832 11.1804 8.0312 10.6405 8.08446C10.1006 8.13771 9.57915 8.31002 9.1138 8.58897C8.64845 8.86792 8.25074 9.24658 7.9493 9.69769C7.64786 10.1488 7.45019 10.6611 7.37052 11.1978C7.29084 11.7345 7.33115 12.2821 7.48854 12.8014C7.64593 13.3206 7.91648 13.7984 8.28072 14.2006C8.64496 14.6027 9.09382 14.919 9.595 15.1268ZM7.002 7.73784C7.52702 7.21281 8.15032 6.79634 8.8363 6.5122C9.52228 6.22806 10.2575 6.08181 11 6.08181C11.7425 6.08181 12.4777 6.22806 13.1637 6.5122C13.8497 6.79634 14.473 7.21281 14.998 7.73784C15.523 8.26286 15.9395 8.88616 16.2236 9.57214C16.5078 10.2581 16.654 10.9933 16.654 11.7358C16.654 12.4783 16.5078 13.2136 16.2236 13.8995C15.9395 14.5855 15.523 15.2088 14.998 15.7338C13.9377 16.7942 12.4995 17.3899 11 17.3899C9.50046 17.3899 8.06234 16.7942 7.002 15.7338C5.94166 14.6735 5.34597 13.2354 5.34597 11.7358C5.34597 10.2363 5.94166 8.79817 7.002 7.73784ZM17.908 6.92384C18.0381 6.80111 18.1423 6.65352 18.2143 6.48981C18.2863 6.32611 18.3248 6.14961 18.3274 5.97077C18.33 5.79193 18.2967 5.61439 18.2295 5.44865C18.1622 5.28291 18.0624 5.13235 17.936 5.00588C17.8095 4.87941 17.6589 4.7796 17.4932 4.71236C17.3275 4.64512 17.1499 4.61182 16.9711 4.61442C16.7922 4.61703 16.6157 4.65549 16.452 4.72754C16.2883 4.79958 16.1407 4.90374 16.018 5.03384C15.7793 5.28687 15.6486 5.62296 15.6537 5.97077C15.6588 6.31858 15.7992 6.65072 16.0452 6.89668C16.2911 7.14265 16.6233 7.28307 16.9711 7.28814C17.3189 7.29321 17.655 7.16253 17.908 6.92384Z" fill="#3D3D3D"/>
</svg>
