<svg width="20" height="21" viewBox="0 0 20 21" fill="none" xmlns="http://www.w3.org/2000/svg">
<path d="M9.99996 2.40259C6.77496 2.40259 4.16663 5.01092 4.16663 8.23592C4.16663 12.6109 9.99996 19.0693 9.99996 19.0693C9.99996 19.0693 15.8333 12.6109 15.8333 8.23592C15.8333 5.01092 13.225 2.40259 9.99996 2.40259ZM9.99996 10.3193C9.44743 10.3193 8.91752 10.0998 8.52682 9.70906C8.13612 9.31836 7.91663 8.78846 7.91663 8.23592C7.91663 7.68339 8.13612 7.15348 8.52682 6.76278C8.91752 6.37208 9.44743 6.15259 9.99996 6.15259C10.5525 6.15259 11.0824 6.37208 11.4731 6.76278C11.8638 7.15348 12.0833 7.68339 12.0833 8.23592C12.0833 8.78846 11.8638 9.31836 11.4731 9.70906C11.0824 10.0998 10.5525 10.3193 9.99996 10.3193Z" fill="black"/>
</svg>
