<svg width="16" height="14" viewBox="0 0 16 14" fill="none" xmlns="http://www.w3.org/2000/svg">
<path d="M16 4.10884V11.2358C16 11.8989 15.7366 12.5348 15.2678 13.0036C14.7989 13.4724 14.163 13.7358 13.5 13.7358H2.5C1.83696 13.7358 1.20107 13.4724 0.732233 13.0036C0.263392 12.5348 0 11.8989 0 11.2358V4.10884L7.746 8.66684C7.82295 8.71222 7.91066 8.73616 8 8.73616C8.08934 8.73616 8.17705 8.71222 8.254 8.66684L16 4.10884ZM13.5 0.73584C14.1151 0.735743 14.7087 0.962446 15.1672 1.37258C15.6257 1.78271 15.9168 2.34748 15.985 2.95884L8 7.65584L0.0150001 2.95884C0.0831583 2.34748 0.374324 1.78271 0.832795 1.37258C1.29127 0.962446 1.88485 0.735743 2.5 0.73584H13.5Z" fill="black"/>
</svg>
