<svg width="18" height="17" viewBox="0 0 18 17" fill="none" xmlns="http://www.w3.org/2000/svg">
<path d="M11.7063 12.1609L13.1063 10.7609C13.2948 10.5746 13.5334 10.4472 13.793 10.3939C14.0526 10.3407 14.3221 10.3639 14.5688 10.4609L16.275 11.1421C16.5243 11.2433 16.738 11.416 16.8893 11.6384C17.0405 11.8609 17.1226 12.1231 17.125 12.3921V15.5171C17.1236 15.7001 17.0851 15.8809 17.0119 16.0486C16.9388 16.2164 16.8324 16.3675 16.6993 16.4931C16.5662 16.6186 16.409 16.7159 16.2373 16.7791C16.0655 16.8423 15.8828 16.8701 15.7 16.8609C3.74377 16.1171 1.33127 5.99211 0.875023 2.11712C0.853843 1.92683 0.873194 1.73421 0.931803 1.55193C0.990411 1.36966 1.08695 1.20186 1.21506 1.05958C1.34318 0.91729 1.49997 0.803743 1.67512 0.726405C1.85027 0.649067 2.03981 0.60969 2.23127 0.610865H5.25002C5.5194 0.611663 5.78239 0.693033 6.00514 0.844509C6.2279 0.995985 6.40025 1.21064 6.50002 1.46087L7.18127 3.16712C7.28143 3.41278 7.30698 3.68252 7.25474 3.94262C7.2025 4.20273 7.07477 4.44167 6.88752 4.62962L5.48752 6.02961C5.48752 6.02961 6.29377 11.4859 11.7063 12.1609Z" fill="black"/>
</svg>
