<svg width="23" height="20" viewBox="0 0 23 20" fill="none" xmlns="http://www.w3.org/2000/svg">
<path d="M22.706 2.92536C21.871 3.29536 20.974 3.54536 20.031 3.65836C21.004 3.07615 21.7319 2.15982 22.079 1.08036C21.1648 1.62335 20.1643 2.00555 19.121 2.21036C18.4194 1.46122 17.4901 0.964684 16.4773 0.797832C15.4646 0.63098 14.4251 0.80315 13.5202 1.28761C12.6154 1.77207 11.8958 2.54172 11.4732 3.47706C11.0505 4.4124 10.9485 5.46111 11.183 6.46036C9.33069 6.36735 7.51863 5.88591 5.86442 5.04726C4.21022 4.20862 2.75084 3.03152 1.581 1.59236C1.181 2.28236 0.951 3.08236 0.951 3.93436C0.950554 4.70135 1.13943 5.4566 1.50088 6.13309C1.86232 6.80958 2.38516 7.3864 3.023 7.81236C2.28328 7.78882 1.55987 7.58894 0.913 7.22936V7.28936C0.912925 8.3651 1.28503 9.40774 1.96618 10.2404C2.64733 11.073 3.59557 11.6443 4.65 11.8574C3.96378 12.0431 3.24434 12.0704 2.546 11.9374C2.8435 12.863 3.423 13.6724 4.20337 14.2523C4.98374 14.8322 5.92592 15.1535 6.898 15.1714C5.24783 16.4668 3.20989 17.1694 1.112 17.1664C0.740381 17.1665 0.369076 17.1448 0 17.1014C2.12948 18.4705 4.60834 19.1972 7.14 19.1944C15.71 19.1944 20.395 12.0964 20.395 5.94036C20.395 5.74036 20.39 5.53836 20.381 5.33836C21.2923 4.67933 22.0789 3.86325 22.704 2.92836L22.706 2.92536Z" fill="#3D3D3D"/>
</svg>
