<svg width="24" height="17" viewBox="0 0 24 17" fill="none" xmlns="http://www.w3.org/2000/svg">
<path d="M23.5006 3.2478C23.3647 2.76303 23.1 2.32414 22.7346 1.9778C22.3589 1.6208 21.8984 1.36543 21.3966 1.2358C19.5186 0.740799 11.9946 0.740799 11.9946 0.740799C8.85795 0.705111 5.72205 0.862073 2.60462 1.2108C2.10281 1.35001 1.64318 1.61109 1.26662 1.9708C0.896617 2.3268 0.628617 2.7658 0.488617 3.2468C0.15231 5.05854 -0.0110908 6.89814 0.000617183 8.7408C-0.0113828 10.5818 0.151617 12.4208 0.488617 14.2348C0.625617 14.7138 0.892617 15.1508 1.26362 15.5038C1.63462 15.8568 2.09662 16.1118 2.60462 16.2468C4.50762 16.7408 11.9946 16.7408 11.9946 16.7408C15.1353 16.7765 18.2752 16.6196 21.3966 16.2708C21.8984 16.1412 22.3589 15.8858 22.7346 15.5288C23.1046 15.1758 23.3676 14.7368 23.4996 14.2588C23.8447 12.4478 24.0125 10.6074 24.0006 8.7638C24.0266 6.9124 23.859 5.06336 23.5006 3.2468V3.2478ZM9.60262 12.1648V5.3178L15.8626 8.7418L9.60262 12.1648Z" fill="#3D3D3D"/>
</svg>
